<svg height="512pt" viewBox="0 0 512 512" width="512pt" xmlns="http://www.w3.org/2000/svg"><path d="m512 256c0 141.386719-114.613281 256-256 256s-256-114.613281-256-256 114.613281-256 256-256 256 114.613281 256 256zm0 0" fill="#2d5396"/><path d="m512 256c0-16.550781-1.589844-32.722656-4.589844-48.398438l-80.265625-80.265624-40.847656 59.527343-105.402344-105.402343-196.8125 282.65625 146.640625 146.640624c8.316406.816407 16.746094 1.242188 25.277344 1.242188 141.386719 0 256-114.613281 256-256zm0 0" fill="#1b3b6b"/><path d="m211.5 356h89v73h-89zm0 0" fill="#e1f4ff"/><path d="m255.714844 356h44.785156v73h-44.785156zm0 0" fill="#abddff"/><path d="m409.972656 372.171875h-307.945312c-13.269532 0-24.027344-10.757813-24.027344-24.027344v-204.117187c0-13.269532 10.757812-24.027344 24.027344-24.027344h307.945312c13.269532 0 24.027344 10.757812 24.027344 24.027344v204.117187c0 13.269531-10.757812 24.027344-24.027344 24.027344zm0 0" fill="#fff"/><path d="m409.972656 120h-154.257812v252.171875h154.257812c13.269532 0 24.027344-10.757813 24.027344-24.027344v-204.117187c0-13.269532-10.757812-24.027344-24.027344-24.027344zm0 0" fill="#dbeeff"/><path d="m96.5 136h319v182.847656h-319zm0 0" fill="#ff583e"/><path d="m255.714844 136h159.785156v182.847656h-159.785156zm0 0" fill="#f92814"/><path d="m198 414h116v27h-116zm0 0" fill="#fff"/><path d="m255.714844 414h58.285156v27h-58.285156zm0 0" fill="#dbeeff"/><path d="m132.0625 235.679688 92.632812-146.550782c14.535157-22.992187 48.070313-22.992187 62.605469 0l92.636719 146.550782c15.585938 24.65625-2.132812 56.816406-31.300781 56.816406h-185.273438c-29.171875 0-46.890625-32.160156-31.300781-56.816406zm0 0" fill="#ffe000"/><path d="m379.9375 235.679688-92.636719-146.550782c-7.324219-11.585937-19.476562-17.328125-31.585937-17.238281v220.605469h92.917968c29.171876 0 46.890626-32.160156 31.304688-56.816406zm0 0" fill="#ffc200"/><path d="m237.5 116h37v96h-37zm0 0" fill="#2864f0"/><path d="m255.714844 116h18.785156v96h-18.785156zm0 0" fill="#0053bf"/><path d="m237.5 229.175781h37v34.824219h-37zm0 0" fill="#2864f0"/><path d="m255.714844 229.175781h18.785156v34.824219h-18.785156zm0 0" fill="#0053bf"/></svg>